<mxfile host="app.diagrams.net" modified="2021-05-07T02:04:26.203Z" agent="5.0 (Macintosh; Intel Mac OS X 10_15_5) AppleWebKit/537.36 (KHTML, like Gecko) Chrome/90.0.4430.85 Safari/537.36" etag="lywZNHKpbw_7kOXskTi9" version="14.6.6" type="github">
  <diagram id="TbQEEp9MMA1_F5JZQG8T" name="第 1 页">
    <mxGraphModel dx="946" dy="590" grid="1" gridSize="10" guides="1" tooltips="1" connect="1" arrows="1" fold="1" page="1" pageScale="1" pageWidth="827" pageHeight="1169" math="0" shadow="0">
      <root>
        <mxCell id="0" />
        <mxCell id="1" parent="0" />
        <mxCell id="SgbAIxtXmt1jCM66Tc68-1" value="this()" style="rounded=0;orthogonalLoop=1;jettySize=auto;html=1;exitX=0.5;exitY=1;exitDx=0;exitDy=0;entryX=0.477;entryY=-0.033;entryDx=0;entryDy=0;entryPerimeter=0;" edge="1" parent="1" source="SgbAIxtXmt1jCM66Tc68-5" target="SgbAIxtXmt1jCM66Tc68-9">
          <mxGeometry relative="1" as="geometry">
            <mxPoint x="250" y="190" as="targetPoint" />
          </mxGeometry>
        </mxCell>
        <mxCell id="SgbAIxtXmt1jCM66Tc68-2" style="rounded=0;orthogonalLoop=1;jettySize=auto;html=1;exitX=0.5;exitY=1;exitDx=0;exitDy=0;" edge="1" parent="1" source="SgbAIxtXmt1jCM66Tc68-5" target="SgbAIxtXmt1jCM66Tc68-10">
          <mxGeometry relative="1" as="geometry" />
        </mxCell>
        <mxCell id="SgbAIxtXmt1jCM66Tc68-3" value="注册配置类" style="edgeLabel;html=1;align=center;verticalAlign=middle;resizable=0;points=[];" vertex="1" connectable="0" parent="SgbAIxtXmt1jCM66Tc68-2">
          <mxGeometry x="-0.1998" y="2" relative="1" as="geometry">
            <mxPoint as="offset" />
          </mxGeometry>
        </mxCell>
        <mxCell id="SgbAIxtXmt1jCM66Tc68-4" style="edgeStyle=none;rounded=0;orthogonalLoop=1;jettySize=auto;html=1;exitX=0.5;exitY=1;exitDx=0;exitDy=0;entryX=0.5;entryY=0;entryDx=0;entryDy=0;" edge="1" parent="1" source="SgbAIxtXmt1jCM66Tc68-5" target="SgbAIxtXmt1jCM66Tc68-11">
          <mxGeometry relative="1" as="geometry" />
        </mxCell>
        <mxCell id="SgbAIxtXmt1jCM66Tc68-5" value="&lt;span style=&quot;color: rgb(0 , 0 , 0) ; font-family: &amp;#34;helvetica&amp;#34; ; font-size: 12px ; font-style: normal ; font-weight: 400 ; letter-spacing: normal ; text-align: center ; text-indent: 0px ; text-transform: none ; word-spacing: 0px ; background-color: rgb(248 , 249 , 250) ; display: inline ; float: none&quot;&gt;AnnotationConfigApplicationContext(Class&amp;lt;T&amp;gt; config)&lt;/span&gt;" style="rounded=1;whiteSpace=wrap;html=1;" vertex="1" parent="1">
          <mxGeometry x="492" y="40" width="306" height="30" as="geometry" />
        </mxCell>
        <mxCell id="SgbAIxtXmt1jCM66Tc68-6" value="初始化Spring容器, 调用父类的构造方法" style="text;html=1;strokeColor=none;fillColor=none;align=center;verticalAlign=middle;whiteSpace=wrap;rounded=0;" vertex="1" parent="1">
          <mxGeometry x="510" y="20" width="219" height="20" as="geometry" />
        </mxCell>
        <mxCell id="SgbAIxtXmt1jCM66Tc68-7" value="&lt;h1&gt;&lt;sub&gt;第一步:初始化&lt;/sub&gt;&lt;/h1&gt;&lt;p&gt;&lt;sub&gt;1. 创建spring容器&lt;/sub&gt;&lt;/p&gt;&lt;p&gt;&lt;sub&gt;2. 初始化环境所需的5个BeanDefinition&lt;/sub&gt;&lt;/p&gt;&lt;p&gt;&lt;br&gt;&lt;/p&gt;" style="text;html=1;strokeColor=none;fillColor=#FFFF66;spacing=5;spacingTop=-20;whiteSpace=wrap;overflow=hidden;rounded=0;" vertex="1" parent="1">
          <mxGeometry x="10" y="30" width="190" height="120" as="geometry" />
        </mxCell>
        <mxCell id="SgbAIxtXmt1jCM66Tc68-8" value="" style="edgeStyle=none;rounded=0;orthogonalLoop=1;jettySize=auto;html=1;" edge="1" parent="1" source="SgbAIxtXmt1jCM66Tc68-9" target="SgbAIxtXmt1jCM66Tc68-13">
          <mxGeometry relative="1" as="geometry" />
        </mxCell>
        <mxCell id="SgbAIxtXmt1jCM66Tc68-9" value="&lt;pre&gt;&lt;pre&gt;AnnotationConfigApplicationContext()&lt;/pre&gt;&lt;/pre&gt;" style="rounded=1;whiteSpace=wrap;html=1;labelBackgroundColor=none;fillColor=#FFFFFF;" vertex="1" parent="1">
          <mxGeometry x="120.87" y="240" width="270" height="30" as="geometry" />
        </mxCell>
        <mxCell id="SgbAIxtXmt1jCM66Tc68-18" value="" style="edgeStyle=orthogonalEdgeStyle;rounded=0;orthogonalLoop=1;jettySize=auto;html=1;" edge="1" parent="1" source="SgbAIxtXmt1jCM66Tc68-10" target="SgbAIxtXmt1jCM66Tc68-17">
          <mxGeometry relative="1" as="geometry" />
        </mxCell>
        <mxCell id="SgbAIxtXmt1jCM66Tc68-10" value="&lt;pre&gt;&lt;pre&gt;&lt;pre&gt;注册配置类, 成为BeanDefinition&lt;/pre&gt;&lt;pre&gt;register(componentClasses);&lt;/pre&gt;&lt;/pre&gt;&lt;/pre&gt;" style="rounded=1;whiteSpace=wrap;html=1;labelBackgroundColor=none;fillColor=#FFFFFF;" vertex="1" parent="1">
          <mxGeometry x="570" y="240" width="270" height="50" as="geometry" />
        </mxCell>
        <mxCell id="SgbAIxtXmt1jCM66Tc68-20" value="" style="edgeStyle=orthogonalEdgeStyle;rounded=0;orthogonalLoop=1;jettySize=auto;html=1;" edge="1" parent="1" source="SgbAIxtXmt1jCM66Tc68-11" target="SgbAIxtXmt1jCM66Tc68-19">
          <mxGeometry relative="1" as="geometry" />
        </mxCell>
        <mxCell id="SgbAIxtXmt1jCM66Tc68-22" value="" style="edgeStyle=entityRelationEdgeStyle;rounded=0;orthogonalLoop=1;jettySize=auto;html=1;elbow=vertical;exitX=1;exitY=1;exitDx=0;exitDy=0;" edge="1" parent="1" source="SgbAIxtXmt1jCM66Tc68-11" target="SgbAIxtXmt1jCM66Tc68-21">
          <mxGeometry relative="1" as="geometry" />
        </mxCell>
        <mxCell id="SgbAIxtXmt1jCM66Tc68-26" style="edgeStyle=entityRelationEdgeStyle;rounded=0;orthogonalLoop=1;jettySize=auto;html=1;exitX=1;exitY=0.75;exitDx=0;exitDy=0;" edge="1" parent="1" source="SgbAIxtXmt1jCM66Tc68-11" target="SgbAIxtXmt1jCM66Tc68-25">
          <mxGeometry relative="1" as="geometry" />
        </mxCell>
        <mxCell id="SgbAIxtXmt1jCM66Tc68-11" value="&lt;pre&gt;&lt;pre&gt;&lt;pre&gt;&lt;pre&gt;refresh()&lt;/pre&gt;&lt;/pre&gt;&lt;/pre&gt;&lt;/pre&gt;" style="rounded=1;whiteSpace=wrap;html=1;labelBackgroundColor=none;fillColor=#FFD966;" vertex="1" parent="1">
          <mxGeometry x="1050" y="240" width="270" height="30" as="geometry" />
        </mxCell>
        <mxCell id="SgbAIxtXmt1jCM66Tc68-12" value="" style="edgeStyle=none;rounded=0;orthogonalLoop=1;jettySize=auto;html=1;" edge="1" parent="1" source="SgbAIxtXmt1jCM66Tc68-13" target="SgbAIxtXmt1jCM66Tc68-14">
          <mxGeometry relative="1" as="geometry" />
        </mxCell>
        <mxCell id="SgbAIxtXmt1jCM66Tc68-13" value="首先, 第一步调用父类构造方法创建bean容器&lt;br&gt;&lt;pre&gt;beanFactory = new DefaultListableBeanFactory()&lt;/pre&gt;" style="whiteSpace=wrap;html=1;rounded=1;fillColor=#FFFFFF;" vertex="1" parent="1">
          <mxGeometry x="82.12" y="320" width="347.5" height="60" as="geometry" />
        </mxCell>
        <mxCell id="SgbAIxtXmt1jCM66Tc68-16" value="" style="edgeStyle=orthogonalEdgeStyle;rounded=0;orthogonalLoop=1;jettySize=auto;html=1;" edge="1" parent="1" source="SgbAIxtXmt1jCM66Tc68-14" target="SgbAIxtXmt1jCM66Tc68-15">
          <mxGeometry relative="1" as="geometry" />
        </mxCell>
        <mxCell id="SgbAIxtXmt1jCM66Tc68-14" value="第二步, 注册5个spring环境所需的BeanDefinition&lt;br&gt;&lt;pre&gt;reader = new AnnotatedBeanDefinitionReader(this);&lt;/pre&gt;" style="whiteSpace=wrap;html=1;rounded=1;fillColor=#FFFFFF;" vertex="1" parent="1">
          <mxGeometry x="75.87" y="440" width="360" height="60" as="geometry" />
        </mxCell>
        <mxCell id="SgbAIxtXmt1jCM66Tc68-15" value="第三步, 注册默认的&lt;span&gt;includeFilters&lt;/span&gt;&lt;span&gt;扫描过滤注解&lt;/span&gt;&lt;br&gt;&lt;pre&gt;&lt;pre&gt;scanner = new ClassPathBeanDefinitionScanner(this);&lt;/pre&gt;&lt;/pre&gt;" style="whiteSpace=wrap;html=1;rounded=1;fillColor=#FFFFFF;" vertex="1" parent="1">
          <mxGeometry x="70" y="560" width="371.75" height="60" as="geometry" />
        </mxCell>
        <mxCell id="SgbAIxtXmt1jCM66Tc68-17" value="&lt;pre&gt;doRegisterBean(Class&amp;lt;T&amp;gt; beanClass);&lt;/pre&gt;&lt;pre&gt;将制定的bean类注册为一个bean, 并添加到registry容器中&lt;br&gt;&lt;/pre&gt;" style="whiteSpace=wrap;html=1;rounded=1;fillColor=#FFFFFF;" vertex="1" parent="1">
          <mxGeometry x="536.25" y="350" width="337.5" height="45" as="geometry" />
        </mxCell>
        <mxCell id="SgbAIxtXmt1jCM66Tc68-19" value="&lt;pre&gt;prepareRefresh();&lt;/pre&gt;&lt;pre&gt;做一些属性验证&lt;/pre&gt;" style="whiteSpace=wrap;html=1;rounded=1;fillColor=#FFD966;" vertex="1" parent="1">
          <mxGeometry x="1067.5" y="320" width="235" height="60" as="geometry" />
        </mxCell>
        <mxCell id="SgbAIxtXmt1jCM66Tc68-21" value="&lt;pre&gt;beanFactory = obtainFreshBeanFactory();&lt;/pre&gt;&lt;pre&gt;取出刚创建的beanfactory&lt;/pre&gt;" style="whiteSpace=wrap;html=1;rounded=1;fillColor=#FFD966;" vertex="1" parent="1">
          <mxGeometry x="1160" y="420" width="292.5" height="50" as="geometry" />
        </mxCell>
        <mxCell id="SgbAIxtXmt1jCM66Tc68-25" value="&lt;pre&gt;&lt;pre&gt;prepareBeanFactory(beanFactory);&lt;/pre&gt;&lt;/pre&gt;" style="whiteSpace=wrap;html=1;rounded=1;fillColor=#FFD966;gradientDirection=south;" vertex="1" parent="1">
          <mxGeometry x="1179.5" y="510" width="300" height="30" as="geometry" />
        </mxCell>
        <mxCell id="SgbAIxtXmt1jCM66Tc68-27" value="&lt;pre&gt;准备BeanFactory, 向单例池中添加一些容器构建所需对象&lt;/pre&gt;" style="text;html=1;strokeColor=none;fillColor=none;align=center;verticalAlign=middle;whiteSpace=wrap;rounded=0;" vertex="1" parent="1">
          <mxGeometry x="1160" y="540" width="329.5" height="20" as="geometry" />
        </mxCell>
      </root>
    </mxGraphModel>
  </diagram>
</mxfile>
